<svg xmlns="http://www.w3.org/2000/svg" viewBox="0 0 104.25 156.22"><defs><style>.cls-1{fill:none;}.cls-2{fill:#fff;}.cls-3{fill:#be5127;}</style></defs><g id="Layer_2" data-name="Layer 2"><g id="Layer_2-2" data-name="Layer 2"><path class="cls-1" d="M40.66,75.77a25.9,25.9,0,0,1-6.14-4.12A25.9,25.9,0,0,0,40.66,75.77Z"/><path class="cls-1" d="M42.74,76.66c-.67-.25-1.33-.53-2-.83C41.41,76.13,42.07,76.41,42.74,76.66Z"/><path class="cls-1" d="M44.2,77.17l-.05,0Z"/><path class="cls-1" d="M25.94,52.35a26,26,0,0,1,26-26h0a26,26,0,0,0-18.38,44.4A25.91,25.91,0,0,1,25.94,52.35Z"/><path class="cls-2" d="M25.94,52.35a25.91,25.91,0,0,0,7.61,18.38c.32.31.64.62,1,.92a25.9,25.9,0,0,0,6.14,4.12l.11.06c.64.3,1.3.58,2,.83.46.18.93.34,1.41.49l.05,0A26,26,0,1,0,25.94,52.35Z"/><path class="cls-3" d="M52.13,0A52.13,52.13,0,0,0,0,52.13C0,89,52,156.22,52,156.22S104.25,89,104.25,52.13A52.12,52.12,0,0,0,52.13,0ZM25.94,52.35a26,26,0,0,1,26-26h0A26,26,0,1,1,44.2,77.17l-.05,0c-.48-.15-.95-.31-1.41-.49-.67-.25-1.33-.53-2-.83l-.11-.06a25.9,25.9,0,0,1-6.14-4.12c-.33-.3-.65-.61-1-.92A25.91,25.91,0,0,1,25.94,52.35Z"/></g></g></svg>